<?xml version="1.0" encoding="utf-8"?>
<!-- Generator: Adobe Illustrator 16.0.0, SVG Export Plug-In . SVG Version: 6.00 Build 0)  -->
<!DOCTYPE svg PUBLIC "-//W3C//DTD SVG 1.1//EN" "http://www.w3.org/Graphics/SVG/1.1/DTD/svg11.dtd">
<svg version="1.1" id="Layer_1" xmlns="http://www.w3.org/2000/svg" xmlns:xlink="http://www.w3.org/1999/xlink" x="0px" y="0px"
	 width="1000px" height="800px" viewBox="0 0 1000 800" enable-background="new 0 0 1000 800" xml:space="preserve">
<path fill="#FAF9F9" d="M246.115,95.278v194.786c0,13.909-1.998,25.959-5.991,36.163c-3.994,10.208-10.503,18.636-19.522,25.29
	c-9.028,6.657-20.785,11.54-35.274,14.645c-14.498,3.109-32.247,4.664-53.245,4.664v-39.053c15.973,0,28.395-1.329,37.27-3.991
	c8.875-2.662,15.454-6.137,19.748-10.429c4.28-4.283,6.942-9.095,7.985-14.422c1.033-5.322,1.553-10.646,1.553-15.974V134.768
	h-52.801v-39.49H246.115z"/>
<path fill="#FAF9F9" d="M358.514,374.33c-0.908-0.376-1.78-0.33-2.673-0.33h-18.162c-3.561,14-6.889,25.543-9.992,36.637
	c-3.108,11.092-6.505,23.021-10.198,36.626c-3.704,13.604-7.474,26.846-11.322,40.159c-3.847,13.312-7.541,25.709-11.085,37.393
	c-3.56,11.684-6.372,21.018-8.433,28.109l-48.811-189.482l-27.059,0.431c-7.408,28.993-15.021,59.968-22.859,92.947
	c-7.837,32.987-15.604,65.269-23.288,95.142L113.603,374H59.47l110.477,321.721c4.734-19.231,12.352-47.613,22.858-84.294
	c10.495-36.673,21.073-81.116,31.723-132.878l56.797,215.534l106.32-311.707C377.404,380.567,367.69,378.141,358.514,374.33z"/>
<path fill="#FAF9F9" d="M825.882,206.717c-7.395-16.703-17.455-31.72-30.168-45.031c-12.725-13.018-27.732-23.144-45.042-30.396
	c-17.3-7.245-36.604-10.866-57.899-10.866c-21.299,0-40.676,4.279-58.124,11.523C617.188,139.199,602.257,150,589.832,163h0.444
	c-13.311,13-23.517,27.672-30.616,44.374c-0.224,0.526-0.433,0.729-0.648,1.257c-1.784-10.83-4.866-21.382-9.263-31.328
	c-7.397-16.703-17.454-31.805-30.17-45.117c-12.719-13.014-27.732-23.183-45.038-30.434c-17.299-7.247-36.605-10.886-57.901-10.886
	c-21.299,0-40.674,4.057-58.126,11.304C341.055,109.42,326.124,120,313.7,133h0.444c-13.309,13-23.518,27.885-30.614,44.587
	c-7.098,16.723-10.65,34.463-10.65,53.696c0.292,18.928,3.917,37.36,10.868,54.073C290.699,302.069,300.835,317,314.144,331H313.7
	c12.424,13,27.355,22.425,44.814,29.67c17.452,7.247,36.827,10.516,58.126,10.516c21.296,0,40.669-3.812,58.125-11.059
	c17.453-7.245,32.537-17.462,45.255-30.484c12.72-13.006,22.699-27.995,29.953-44.862c0.323-0.753,0.631-1.534,0.94-2.291
	c1.768,10.951,4.752,21.919,8.967,32.054C566.832,331.256,576.966,347,590.276,360h-0.444c12.425,13,27.355,22.713,44.816,29.961
	c17.448,7.245,36.825,10.659,58.124,10.659c21.296,0,40.667-3.739,58.127-10.984c17.448-7.248,32.536-17.428,45.255-30.448
	c12.72-13.008,22.7-27.979,29.948-44.844c7.247-16.854,10.874-34.765,10.874-53.694
	C836.977,241.418,833.274,223.441,825.882,206.717z M505.825,270.101c-4.737,12.129-11.391,22.702-19.969,31.72
	c-8.581,9.03-18.787,16.191-30.612,21.517c-11.835,5.335-24.704,7.987-38.605,7.987c-13.907,0-26.772-2.652-38.604-7.987
	c-11.834-5.325-22.038-12.486-30.612-21.517c-8.585-9.019-15.241-19.591-19.968-31.72c-4.734-12.127-7.099-25.144-7.099-39.042
	c0-13.907,2.365-26.993,7.099-39.274c4.727-12.275,11.383-22.925,19.968-31.949c8.574-9.017,18.778-16.189,30.612-21.514
	c11.832-5.324,24.698-7.987,38.604-7.987c13.901,0,26.77,2.663,38.605,7.987c11.825,5.325,22.031,12.497,30.612,21.514
	c8.578,9.024,15.231,19.673,19.969,31.949c4.729,12.281,7.098,25.367,7.098,39.274C512.923,244.958,510.554,257.974,505.825,270.101
	z M781.957,299.679c-4.734,12.129-11.387,22.703-19.968,31.723c-8.579,9.029-18.787,16.19-30.615,21.525
	c-11.834,5.325-24.699,7.976-38.602,7.976c-13.906,0-26.774-2.651-38.604-7.976c-11.834-5.334-22.039-12.496-30.612-21.525
	c-8.588-9.02-15.24-19.593-19.967-31.723c-4.736-12.126-7.104-25.14-7.104-39.042c0-13.907,2.367-26.992,7.104-39.272
	c4.727-12.266,11.379-22.916,19.967-31.947c8.573-9.021,18.778-16.192,30.612-21.517c11.829-5.325,24.697-7.987,38.604-7.987
	c13.902,0,26.768,2.663,38.602,7.987c11.828,5.325,22.036,12.497,30.615,21.517c8.581,9.031,15.233,19.681,19.968,31.947
	c4.728,12.28,7.097,25.366,7.097,39.272C789.054,274.539,786.685,287.552,781.957,299.679z"/>
<path fill="#FAF9F9" d="M663.783,524.478c-4.431-7.682-11.084-15.235-19.969-22.625c-8.869-7.387-21.001-14.496-36.381-21.299
	c-9.171-3.844-17.671-7.463-25.505-10.877c-7.849-3.39-14.724-6.941-20.638-10.638c-5.915-3.704-10.582-7.552-13.978-11.541
	c-3.407-3.997-5.104-8.496-5.104-13.528c0-8.279,3.258-14.94,9.763-19.974c6.503-5.019,16.414-7.542,29.726-7.542
	c24.255,0,40.972,11.685,50.145,35.056l40.376-12.864c-2.282-5.748-4.853-11.115-7.692-16.127
	c-10.516-1.803-20.479-3.934-29.877-7.837C617.188,397.434,602.257,388,589.832,375h0.444c-2.712-3-5.258-6.227-7.706-9.08
	c-0.294-0.002-0.578-0.37-0.873-0.37c-16.861,0-30.988,2.191-42.366,6.916c-11.398,4.74-20.561,10.638-27.516,17.886
	c-6.947,7.249-11.973,15.258-15.082,24.133c-3.108,8.879-4.657,17.281-4.657,25.269c0,7.693,1.256,14.854,3.765,21.512
	c2.514,6.65,6.945,13.156,13.311,19.514c6.367,6.364,15.016,12.718,25.963,19.075c10.941,6.37,24.992,13.093,42.15,20.188
	c11.826,4.74,21.079,9.464,27.733,14.202c6.652,4.729,11.602,9.393,14.865,13.976c3.246,4.586,5.237,8.868,5.987,12.864
	c0.738,3.99,1.107,7.616,1.107,10.87c0,3.263-0.596,6.878-1.771,10.862c-1.195,4.003-3.553,7.928-7.104,11.768
	c-3.551,3.85-8.352,7.024-14.417,9.543c-6.062,2.509-13.971,3.77-23.738,3.77c-6.207,0-12.506-1.924-18.857-5.77
	c-6.365-3.84-12.353-8.65-17.97-14.419c-5.627-5.767-10.726-11.83-15.313-18.192c-4.586-6.354-7.911-12.049-9.983-17.082
	l-33.275,27.508c4.437,9.463,9.833,18.346,16.193,26.624c6.361,8.278,13.605,15.461,21.74,21.514
	c8.136,6.073,17.011,10.813,26.624,14.205c9.614,3.394,19.893,5.104,30.841,5.104c18.334,0,33.563-2.818,45.695-8.43
	c12.127-5.615,21.75-12.572,28.839-20.857c7.104-8.281,12.127-17.004,15.092-26.178c2.956-9.172,4.442-17.152,4.442-23.959
	c0-6.506-0.604-13.462-1.779-20.852C671.033,539.716,668.221,532.175,663.783,524.478z"/>
<path fill="#FAF9F9" d="M417.454,384.74c-4.362,0-8.379,0.867-12.578,0.563L405.556,645H452V381.081
	C441,383.513,429.788,384.74,417.454,384.74z"/>
<g>
	<path fill="#FAF9F9" d="M712,374v-0.809c1-0.267,3.045,0.809,4.475,0.809H712z"/>
	<path fill="#FAF9F9" d="M881,374v106H758v-79.893c-1,1.166-4.063,2.29-6.58,3.337c-12.379,5.135-25.314,9.474-39.615,10.97
		L712.583,645H758V520h123v125h47V374H881z"/>
</g>
</svg>

